<?xml version="1.0" encoding="utf-8"?>
<svg width="300" height="300" viewBox="0 0 300 300" fill="none" xmlns="http://www.w3.org/2000/svg">
  <defs>
    <linearGradient id="gradient_1" gradientUnits="userSpaceOnUse" x1="-0.5" y1="71.995" x2="225.5"
      y2="175.995">
      <stop offset="0.122" stop-color="#06B6D4" />
      <stop offset="1" stop-color="#E879F9" />
    </linearGradient>
  </defs>
  <g>
    <path
      d="M210.937 53.3699C219.675 58.3545 225.049 67.6604 225 77.7199C225 77.7199 225 168.77 225 168.77C225 178.882 219.462 188.207 210.525 193.12C210.525 193.12 126.15 246.495 126.15 246.495C117.648 251.16 107.352 251.16 98.8499 246.495C98.8499 246.495 14.475 193.12 14.475 193.12C5.57799 188.242 0.0338402 178.916 0 168.77C0 168.77 0 77.7074 0 77.7074C0 67.5949 5.53749 58.2824 14.475 53.3699C14.475 53.3699 98.8499 3.61987 98.8499 3.61987C107.604 -1.20662 118.221 -1.20662 126.975 3.61987C126.975 3.61987 211.35 53.3699 211.35 53.3699C211.35 53.3699 210.937 53.3699 210.937 53.3699Z"
      fill="url(#gradient_1)" fill-rule="evenodd" transform="translate(37.5 25.005)" />
    <path
      d="M143.437 36.2924C149.379 39.682 153.034 46.0102 153 52.8508C153 52.8508 153 114.766 153 114.766C153 121.643 149.234 127.984 143.157 131.325C143.157 131.325 85.7819 167.621 85.7819 167.621C80.0005 170.793 72.9993 170.793 67.2179 167.621C67.2179 167.621 9.84298 131.325 9.84298 131.325C3.79304 128.008 0.0230103 121.666 0 114.766C0 114.766 0 52.8423 0 52.8423C0 45.9657 3.7655 39.633 9.84299 36.2924C9.84299 36.2924 67.2179 2.46158 67.2179 2.46158C73.1705 -0.820526 80.3903 -0.820526 86.3429 2.46158C86.3429 2.46158 143.718 36.2924 143.718 36.2924C143.718 36.2924 143.437 36.2924 143.437 36.2924Z"
      fill="none" stroke-width="16" stroke="#18181B" stroke-linecap="round" stroke-linejoin="round"
      transform="translate(73 65)" />
  </g>
</svg>